<?xml version="1.0" standalone="no"?><!DOCTYPE svg PUBLIC "-//W3C//DTD SVG 1.1//EN" "http://www.w3.org/Graphics/SVG/1.1/DTD/svg11.dtd"><svg t="1610014437628" class="icon" viewBox="0 0 1024 1024" version="1.1" xmlns="http://www.w3.org/2000/svg" p-id="5368" xmlns:xlink="http://www.w3.org/1999/xlink" width="200" height="200"><defs><style type="text/css"></style></defs><path d="M885.683794 957.420629 139.201365 957.420629c-11.707646 0-21.203928-9.491165-21.203928-21.210068L117.997438 83.70133c0-11.712763 9.496282-21.209044 21.203928-21.209044l533.355377 0c11.712763 0 21.203928 9.496282 21.203928 21.209044 0 11.712763-9.491165 21.203928-21.203928 21.203928L160.41041 104.905258l0 810.101375 704.068434 0L864.478843 298.948673c0-11.712763 9.491165-21.203928 21.203928-21.203928 11.712763 0 21.210068 9.491165 21.210068 21.203928l0 637.262912C906.888745 947.929464 897.396557 957.420629 885.683794 957.420629M885.704261 316.975235l-0.020466 0-212.069977 0c-11.712763 0-21.203928-9.496282-21.203928-21.210068L652.40989 83.70133c0-8.576329 5.16565-16.312524 13.088086-19.59529 7.92346-3.28379 17.045211-1.467421 23.112394 4.599761L900.124691 280.218076c4.173043 3.871167 6.78452 9.406231 6.78452 15.548114C906.909212 307.478953 897.418047 316.975235 885.704261 316.975235M694.823885 274.561239l139.662877 0L694.823885 134.898363 694.823885 274.561239zM524.109806 310.61027 229.332129 310.61027c-11.712763 0-21.203928-9.491165-21.203928-21.203928 0-11.712763 9.491165-21.209044 21.203928-21.209044l294.7787 0c11.712763 0 21.203928 9.496282 21.203928 21.209044C545.314757 301.119105 535.822568 310.61027 524.109806 310.61027M805.095361 476.026694 228.275054 476.026694c-11.712763 0-21.209044-9.496282-21.209044-21.210068s9.496282-21.203928 21.209044-21.203928l576.820308 0c11.712763 0 21.210068 9.491165 21.210068 21.203928S816.808124 476.026694 805.095361 476.026694M805.095361 596.903715 228.275054 596.903715c-11.712763 0-21.209044-9.491165-21.209044-21.203928 0-11.712763 9.496282-21.210068 21.209044-21.210068l576.820308 0c11.712763 0 21.210068 9.496282 21.210068 21.210068C826.305429 587.41255 816.808124 596.903715 805.095361 596.903715M805.095361 717.78176 228.275054 717.78176c-11.712763 0-21.209044-9.493212-21.209044-21.203928 0-11.712763 9.496282-21.210068 21.209044-21.210068l576.820308 0c11.712763 0 21.210068 9.496282 21.210068 21.210068C826.305429 708.289572 816.808124 717.78176 805.095361 717.78176" p-id="5369" fill="#929292"></path></svg>