<?xml version="1.0" standalone="no"?><!DOCTYPE svg PUBLIC "-//W3C//DTD SVG 1.1//EN" "http://www.w3.org/Graphics/SVG/1.1/DTD/svg11.dtd"><svg t="1610015086105" class="icon" viewBox="0 0 1024 1024" version="1.1" xmlns="http://www.w3.org/2000/svg" p-id="14201" xmlns:xlink="http://www.w3.org/1999/xlink" width="200" height="200"><defs><style type="text/css"></style></defs><path d="M518.656 5.632c166.912 0 323.072 81.408 417.792 218.624V144.896c0-20.992 16.896-37.888 37.888-37.888 19.456 0 35.84 14.848 37.888 34.304V322.048c0 19.456-14.848 35.84-34.304 37.888H797.184c-20.992 0-37.888-16.896-37.888-37.888 0-19.456 14.848-35.84 34.304-37.888h91.136c-78.848-125.952-217.6-202.752-366.08-202.752C280.576 81.408 87.04 274.432 87.04 512s193.024 430.592 431.616 430.592c183.808 0 345.088-115.2 406.528-284.672 6.656-19.968 28.672-30.208 48.128-23.552 19.968 6.656 30.208 28.672 23.552 48.128 0 0.512 0 0.512-0.512 1.024-72.704 201.216-263.68 335.36-477.696 334.848-280.576 0-507.392-226.816-507.392-506.368 0-279.552 227.328-506.368 507.392-506.368z m0 189.952c19.456 0 35.84 14.848 37.888 34.304V492.544l161.28 115.2c16.896 12.288 20.992 35.84 9.216 52.736-11.264 15.872-33.28 20.48-50.176 10.752l-3.072-2.048L496.64 542.72c-8.704-6.144-14.336-15.872-15.872-26.624V233.472c0-20.992 16.896-37.888 37.888-37.888z" p-id="14202" fill="#929292"></path></svg>